HIERARCHY
ROOT Hips
{
	OFFSET 0.00000 0.00000 0.00000
	CHANNELS 6 Xposition Yposition Zposition Zrotation Yrotation Xrotation 
	JOINT LHipJoint
	{
		OFFSET 0 0 0
		CHANNELS 3 Zrotation Yrotation Xrotation
		JOINT LeftHip
		{
			OFFSET 1.86795 -1.59681 0.65681
			CHANNELS 3 Zrotation Yrotation Xrotation
			JOINT LeftKnee
			{
				OFFSET 2.30491 -6.33268 0.00000
				CHANNELS 3 Zrotation Yrotation Xrotation
				JOINT LeftAnkle
				{
					OFFSET 2.46780 -6.78022 0.00000
					CHANNELS 3 Zrotation Yrotation Xrotation
					JOINT LeftToe
					{
						OFFSET 0.07897 -0.21698 1.59652
						CHANNELS 3 Zrotation Yrotation Xrotation
						End Site
						{
							OFFSET 0.00000 -0.00000 0.82310
						}
					}
				}
			}
		}
	}
	JOINT RHipJoint
	{
		OFFSET 0 0 0
		CHANNELS 3 Zrotation Yrotation Xrotation
		JOINT RightHip
		{
			OFFSET -1.93650 -1.59681 0.65681
			CHANNELS 3 Zrotation Yrotation Xrotation
			JOINT RightKnee
			{
				OFFSET -2.29410 -6.30299 0.00000
				CHANNELS 3 Zrotation Yrotation Xrotation
				JOINT RightAnkle
				{
					OFFSET -2.48738 -6.83403 0.00000
					CHANNELS 3 Zrotation Yrotation Xrotation
					JOINT RightToe
					{
						OFFSET -0.08699 -0.23899 1.89395
						CHANNELS 3 Zrotation Yrotation Xrotation
						End Site
						{
							OFFSET -0.00000 -0.00000 0.96904
						}
					}
				}
			}
		}
	}
	JOINT lowerback
	{
		OFFSET 0 0 0
		CHANNELS 3 Zrotation Yrotation Xrotation
		JOINT Chest
		{
			OFFSET 0.03629 1.99740 -0.07548
			CHANNELS 3 Zrotation Yrotation Xrotation
			JOINT Chest2
			{
				OFFSET 0.03970 1.94298 0.17218
				CHANNELS 3 Zrotation Yrotation Xrotation
				JOINT lowerneck
				{
					OFFSET 0 0 0
					CHANNELS 3 Zrotation Yrotation Xrotation
					JOINT Neck
					{
						OFFSET -0.05054 1.79469 0.04241
						CHANNELS 3 Zrotation Yrotation Xrotation
						JOINT Head
						{
							OFFSET 0.05195 1.78475 -0.22133
							CHANNELS 3 Zrotation Yrotation Xrotation
							End Site
							{
								OFFSET 0.02420 1.80711 -0.07950
							}
						}
					}
				}
				JOINT LeftCollar
				{
					OFFSET 0 0 0
					CHANNELS 3 Zrotation Yrotation Xrotation
					JOINT LeftShoulder
					{
						OFFSET 2.92134 1.19850 0.36056
CHANNELS 3 Zrotation Xrotation Yrotation
						JOINT LeftElbow
						{
OFFSET 0 -4.841370 0.000000
CHANNELS 3 Zrotation Xrotation Yrotation
							JOINT LeftWrist
							{
OFFSET 0 -3.245200 -0.000000
CHANNELS 3 Zrotation Xrotation Yrotation
								JOINT lhand
								{
									OFFSET 0 0 0
CHANNELS 3 Zrotation Xrotation Yrotation
									JOINT LFingers
									{
OFFSET 0 -0.521220 0.000000
CHANNELS 3 Zrotation Xrotation Yrotation
										End Site
										{
OFFSET 0 -0.420220 0.000000
										}
									}
								}
								JOINT LThumb
								{
OFFSET 0 0.000000 0.000000
CHANNELS 3 Zrotation Xrotation Yrotation
									End Site
									{
OFFSET 0 -0.426640 0.426640
									}
								}
							}
						}
					}
				}
				JOINT RightCollar
				{
					OFFSET 0 0 0
					CHANNELS 3 Zrotation Yrotation Xrotation
					JOINT RightShoulder
					{
						OFFSET -2.84327 1.20795 0.50191
CHANNELS 3 Zrotation Xrotation Yrotation
						JOINT RightElbow
						{
OFFSET 0 -4.722840 0.000000
CHANNELS 3 Zrotation Xrotation Yrotation
							JOINT RightWrist
							{
OFFSET 0 -3.234590 0.000000
CHANNELS 3 Zrotation Xrotation Yrotation
								JOINT rhand
								{
									OFFSET 0 0 0
CHANNELS 3 Zrotation Xrotation Yrotation
									JOINT RFingers
									{
OFFSET 0 -0.307420 0.000000
CHANNELS 3 Zrotation Xrotation Yrotation
										End Site
										{
OFFSET 0 -0.247850 0.000000
										}
									}
								}
								JOINT RThumb
								{
OFFSET 0 0.000000 0.000000
CHANNELS 3 Zrotation Xrotation Yrotation
									End Site
									{
OFFSET 0 -0.251630 0.251630
									}
								}
							}
						}
					}
				}
			}
		}
	}
}
MOTION
Frames: 11
Frame Time: 0.008333333333333333
15.775900 15.814000 -25.128600 -1.133300 -30.605100 8.533300 0.000000 0.000000 0.000000 -6.139500 -24.331100 -24.585400 3.317600 11.192300 32.931200 0.138200 10.230200 -16.581500 0.204900 -2.914300 -8.040400 0.000000 0.000000 0.000000 33.193300 34.899600 -7.225100 -2.381900 -9.619900 27.754400 3.414200 -36.538300 -36.690800 -3.876100 -11.993600 35.709500 5.614300 0.665900 -0.945100 0.796500 0.935200 -3.355700 -2.336300 0.322100 -2.857100 -4.495700 2.372200 -6.418300 6.812800 2.608700 16.979500 3.088800 1.472100 6.016900 -0.000000 0.000000 0.000000 2.914700 18.504800 -16.029300 26.902500 -38.086000 9.438900 -7.799300 -13.955400 -49.452400 0.000000 0.000000 0.000000 -7.125000 0.000000 0.000000 -68.822300 67.414700 44.682300 -0.000000 0.000000 0.000000 -10.928600 18.390400 37.866600 -22.565300 -33.610000 -6.896100 -26.287900 -33.462800 -23.635700 0.000000 0.000000 0.000000 7.125000 0.000000 -0.000000 1.798900 3.973200 1.670800
15.806272 15.822970 -25.159933 -0.942651 -30.401363 8.334115 0.000000 0.000000 0.000000 -6.284309 -24.760900 -24.413927 3.265782 11.113327 32.663084 0.149538 10.143363 -16.625728 0.110107 -2.139323 -5.890894 0.000000 0.000000 0.000000 32.770786 34.046223 -7.789390 -2.392916 -9.640540 27.820495 3.713302 -36.663998 -35.244385 -3.629966 -11.650875 34.508132 5.538187 0.675475 -0.281208 0.727730 0.976378 -2.831134 -2.371010 0.359992 -2.683210 -4.168173 2.395245 -7.348832 6.385788 2.723855 16.556977 2.914099 1.532008 6.053860 0.000000 0.000000 0.000000 3.255727 18.472096 -17.087094 27.796391 -38.928129 9.995470 10.633311 -0.561059 -44.425534 0.000000 0.000000 0.000000 -7.125000 0.000000 0.000000 -42.172256 70.545226 27.632827 0.000000 0.000000 0.000000 -10.848031 18.497173 38.030268 -23.196947 -34.303416 -7.248982 -26.957338 -35.995045 -23.821414 0.000000 0.000000 0.000000 7.125000 0.000000 0.000000 1.412497 3.636585 1.320392
15.830207 15.822182 -25.189839 -1.243269 -30.390876 8.416978 0.000000 0.000000 0.000000 -5.951340 -24.889748 -24.433853 3.248202 11.086424 32.571907 0.116993 10.318282 -16.405957 0.118463 -2.211516 -6.090918 0.000000 0.000000 0.000000 32.842180 33.411496 -8.257838 -2.404684 -9.662520 27.890642 3.707330 -36.484775 -34.821483 -3.420273 -11.344721 33.453143 5.805788 0.635351 0.466418 0.836253 0.972987 -2.540847 -2.416926 0.356505 -2.803430 -4.227462 2.682352 -7.612992 6.328667 3.171245 15.925760 2.926428 1.747282 5.876782 0.000000 0.000000 0.000000 3.461629 19.155429 -18.122809 28.466209 -39.541856 10.419209 15.108246 4.029839 -46.072456 0.000000 0.000000 0.000000 -7.125000 0.000000 0.000000 -41.888394 73.472992 29.535009 0.000000 0.000000 0.000000 -11.041761 18.887023 38.524855 -23.612283 -34.751547 -7.484392 -27.402439 -37.325686 -23.414452 0.000000 0.000000 0.000000 7.125000 0.000000 0.000000 1.083448 3.982187 1.005793
15.849798 15.829877 -25.207725 -0.578854 -30.600120 7.883833 0.000000 0.000000 0.000000 -6.702636 -25.323942 -23.830782 3.187471 10.992506 32.254598 0.079103 10.783294 -16.487974 0.097218 -2.006712 -5.524377 0.000000 0.000000 0.000000 32.100011 32.699684 -8.619010 -2.457367 -9.760042 28.203012 3.207929 -35.361331 -35.121800 -3.511947 -11.480694 33.919042 5.249876 0.647095 1.113019 0.595912 0.998716 -1.997508 -2.360349 0.395757 -2.605311 -3.762356 2.726959 -8.298478 5.678054 3.314553 15.391470 2.655714 1.806006 5.843638 0.000000 0.000000 0.000000 4.265877 19.912999 -20.626441 29.188818 -40.187853 10.882376 13.164896 2.343403 -46.762150 0.000000 0.000000 0.000000 -7.125000 0.000000 0.000000 -45.685585 73.142579 32.297740 0.000000 0.000000 0.000000 -11.152143 18.964892 39.311757 -23.850743 -35.006032 -7.620767 -27.430825 -38.405195 -23.025872 0.000000 0.000000 0.000000 7.125000 0.000000 0.000000 1.013467 4.396016 0.932941
15.878841 15.832444 -25.251924 -0.648498 -30.370512 7.833957 0.000000 0.000000 0.000000 -6.604853 -25.645037 -24.068996 3.218955 11.041314 32.419291 -0.023164 11.363491 -15.836191 0.204894 -2.905127 -8.015363 0.000000 0.000000 0.000000 31.945231 31.809892 -9.168415 -2.455502 -9.756585 28.192017 3.065698 -34.779344 -34.617382 -3.579202 -11.578010 34.255393 5.274216 0.544588 2.051140 0.628914 0.909511 -1.530381 -2.346466 0.358877 -2.658437 -3.853086 2.855036 -8.723081 5.401376 3.599335 14.236416 2.587024 1.928599 5.546464 0.000000 0.000000 0.000000 5.499699 20.828787 -24.647517 30.069271 -40.952508 11.455055 8.172591 -1.815327 -51.635706 0.000000 0.000000 0.000000 -7.125000 0.000000 0.000000 -62.431372 73.629586 46.962544 0.000000 0.000000 0.000000 -11.475118 19.064161 40.327779 -24.150671 -35.323115 -7.793487 -27.719689 -39.514380 -22.560945 0.000000 0.000000 0.000000 7.125000 0.000000 0.000000 0.771801 4.839976 0.704104
15.910797 15.839234 -25.310630 -0.255152 -30.144604 7.581809 0.000000 0.000000 0.000000 -6.932166 -25.555688 -24.548074 3.228284 11.055664 32.467919 -0.003952 11.078210 -15.709564 0.047943 -1.381724 -3.800349 0.000000 0.000000 0.000000 31.312505 30.986375 -10.052822 -2.511033 -9.857947 28.517919 2.817887 -33.894201 -34.113776 -3.717195 -11.774243 34.937907 4.722997 0.541386 3.137187 0.537832 0.934905 -1.066116 -2.144546 0.386023 -2.793783 -3.366540 2.943496 -9.366458 4.842298 3.774468 13.402337 2.340940 2.008973 5.411504 0.000000 0.000000 0.000000 7.104639 21.785741 -29.513970 31.112418 -41.827813 12.144833 1.306098 -7.251878 -55.134905 0.000000 0.000000 0.000000 -7.125000 0.000000 0.000000 -78.403932 72.316406 59.690647 0.000000 0.000000 0.000000 -11.672819 19.290857 41.300691 -24.550636 -35.741150 -8.025975 -28.528647 -41.613086 -22.971452 0.000000 0.000000 0.000000 7.125000 0.000000 0.000000 0.327808 4.224237 0.302757
15.939870 15.829700 -25.353703 -0.784653 -29.935928 7.641053 0.000000 0.000000 0.000000 -6.859373 -23.740417 -25.685999 3.387601 11.297599 33.290162 -0.075604 10.816742 -14.200642 0.229468 -3.081716 -8.506390 0.000000 0.000000 0.000000 31.677072 30.147987 -10.453304 -2.507491 -9.851520 28.497177 2.982701 -34.076913 -33.480372 -3.400100 -11.316101 33.353524 5.029661 0.447011 4.119228 0.767341 0.863133 -0.360355 -2.083434 0.361993 -2.621755 -3.547763 3.138368 -10.171656 4.518689 4.169347 12.133977 2.288585 2.183676 5.141136 0.000000 0.000000 0.000000 8.634841 22.265690 -33.427104 32.020141 -42.563160 12.754458 1.211028 -5.952563 -54.038616 0.000000 0.000000 0.000000 -7.125000 0.000000 0.000000 -75.085682 72.049019 56.181437 0.000000 0.000000 0.000000 -12.466642 19.208090 42.934072 -25.118944 -36.325269 -8.360304 -29.527269 -43.675161 -22.873023 0.000000 0.000000 0.000000 7.125000 0.000000 0.000000 -0.301959 4.114453 -0.279534
15.970676 15.828705 -25.414561 0.099394 -29.022493 7.455686 0.000000 0.000000 0.000000 -8.088234 -22.402095 -27.510021 3.522563 11.496371 33.972855 -0.096397 10.261179 -12.954217 0.057465 -1.532898 -4.216649 0.000000 0.000000 0.000000 30.431161 29.635977 -11.930985 -2.672789 -10.145336 29.448825 2.519450 -33.449297 -34.966487 -3.569640 -11.564140 34.207538 4.087371 0.094477 4.920418 0.768880 0.376490 0.020580 -1.527696 0.136305 -2.718255 -3.726146 3.421196 -10.530378 4.100666 4.668382 11.034600 2.207100 2.401351 4.846680 0.000000 0.000000 0.000000 10.040282 23.144453 -37.931029 33.189047 -43.474804 13.551973 0.027263 -8.236435 -55.726717 0.000000 0.000000 0.000000 -7.125000 0.000000 0.000000 -80.663435 71.979545 61.494073 0.000000 0.000000 0.000000 -13.639746 19.412399 45.164592 -25.743820 -36.954485 -8.733259 -30.263953 -45.022514 -21.532237 0.000000 0.000000 0.000000 7.125000 0.000000 0.000000 -0.955054 5.431182 -0.859866
16.008411 15.814406 -25.470949 -0.352680 -27.980747 7.952371 0.000000 0.000000 0.000000 -8.321801 -20.928268 -29.748276 3.840051 11.944069 35.534894 -0.149386 11.064343 -13.300148 0.003116 0.281174 0.772638 0.000000 0.000000 0.000000 30.456068 29.184880 -13.146010 -2.755700 -10.288639 29.916556 2.500967 -33.485894 -35.154368 -3.696306 -11.743904 34.833179 4.929335 -0.081369 5.249176 0.597168 0.182036 0.663132 -2.163122 0.048420 -2.247100 -3.262535 3.506664 -10.549810 3.829307 4.773407 9.351897 2.023603 2.462946 4.346438 0.000000 0.000000 0.000000 12.199584 23.341974 -41.613246 34.296728 -44.303294 14.319966 -2.279794 -11.413442 -56.506269 0.000000 0.000000 0.000000 -7.125000 0.000000 0.000000 -83.770197 71.297604 63.774066 0.000000 0.000000 0.000000 -13.565029 19.318134 46.058734 -26.178955 -37.384811 -8.996071 -31.552122 -47.114889 -22.764783 0.000000 0.000000 0.000000 7.125000 0.000000 0.000000 -1.563442 3.770753 -1.457700
16.040331 15.798801 -25.518399 -0.210166 -27.428090 7.952158 0.000000 0.000000 0.000000 -9.458710 -19.056116 -31.584465 4.217466 12.444127 37.322185 -0.109296 11.697636 -15.032566 0.154567 2.527368 6.965952 0.000000 0.000000 0.000000 30.070765 29.155438 -13.781604 -2.820210 -10.398134 30.275919 2.147224 -32.799377 -35.811170 -3.961794 -12.106705 36.114319 4.859061 -0.128333 5.961588 0.472534 0.132387 1.267934 -2.249989 0.037609 -2.023967 -3.188820 3.582023 -10.851542 3.799732 4.893870 8.156257 1.994996 2.530541 4.027824 0.000000 0.000000 0.000000 13.749912 23.051856 -44.476235 34.531561 -44.474713 14.484182 2.821839 -6.852202 -55.763764 0.000000 0.000000 0.000000 -7.125000 0.000000 0.000000 -79.836282 72.957935 61.856255 0.000000 0.000000 0.000000 -13.926430 19.003960 46.980438 -26.158529 -37.364829 -8.983682 -30.476213 -45.701451 -21.998594 0.000000 0.000000 0.000000 7.125000 0.000000 0.000000 -1.018288 4.867775 -0.928281
16.064635 15.793775 -25.554806 0.001641 -26.935950 7.591680 0.000000 0.000000 0.000000 -11.029630 -16.870042 -32.852495 4.530122 12.834075 38.750803 -0.159796 12.973781 -16.308325 0.095289 1.983299 5.459664 0.000000 0.000000 0.000000 29.823312 28.384261 -14.189937 -2.876572 -10.492468 30.586644 2.408499 -33.370846 -35.458131 -3.675137 -11.714125 34.729303 4.574681 -0.083828 7.282687 0.371359 0.225735 1.770015 -2.206417 0.087119 -2.235244 -2.977201 3.495635 -11.088715 3.456991 4.808831 6.591791 2.030693 2.469530 4.005994 0.000000 0.000000 0.000000 14.932514 22.913039 -45.980388 34.709184 -44.603361 14.608794 1.230919 -7.024983 -55.268102 0.000000 0.000000 0.000000 -7.125000 0.000000 0.000000 -78.828573 72.321633 60.103725 0.000000 0.000000 0.000000 -14.323478 19.285096 48.125075 -26.520601 -37.718200 -9.204297 -31.142805 -46.925876 -21.601822 0.000000 0.000000 0.000000 7.125000 0.000000 0.000000 -1.491769 5.159756 -1.352050
